PathFileType	4	(X/Y/Z)	C:\Users\WrightLab\Desktop\Jo\P3_27.trc
DataRate	CameraRate	NumFrames	NumMarkers	Units	OrigDataRate	OrigDataStartFrame	OrigNumFrames
100.00	100.00	       10	19	mm	100.00	344	       549
Frame#	Time	Headset_Front			Headset_Back			Headset_Left			Headset_Right			Left_Shoulder			Right_Shoulder			Sternum			C7			Left Elbow			Right Elbow			Left Wrist			Right Wrist			Left ASIS			Right ASIS			S2			Left Knee			Right Knee			Left Ankle			Right Ankle			
		X1	Y1	Z1	X2	Y2	Z2	X3	Y3	Z3	X4	Y4	Z4	X5	Y5	Z5	X6	Y6	Z6	X7	Y7	Z7	X8	Y8	Z8	X9	Y9	Z9	X10	Y10	Z10	X11	Y11	Z11	X12	Y12	Z12	X13	Y13	Z13	X14	Y14	Z14	X15	Y15	Z15	X16	Y16	Z16	X17	Y17	Z17	X18	Y18	Z18	X19	Y19	Z19	

344	3.430	-613.23334	1413.54810	-1054.46484				-756.90588	1508.30701	-932.50592				-862.51569	1287.49426	-837.43500	-504.18234	1290.66394	-781.15161	-668.33813	1175.90308	-942.75214	-685.58551	1343.15100	-760.44971	-933.02032	953.31287	-832.61957	-419.37161	945.37354	-762.66510	-907.98053	768.35864	-924.47028	-411.63718	770.37360	-903.25385	-760.95178	810.18854	-941.08459				-690.16034	891.76971	-705.30542	-754.86285	413.60049	-1000.60651	-566.76514	393.50668	-732.66187				-610.79028	113.13602	-540.90967	
345	3.440	-612.97845	1415.32654	-1062.32117				-757.12854	1509.87402	-940.70825				-863.02014	1287.49878	-847.31909	-505.29388	1291.93713	-788.95392	-668.14874	1177.22644	-951.43744	-688.07538	1344.47827	-769.56781	-932.06976	952.55310	-842.85309	-420.71759	946.67841	-770.08514	-907.03735	768.23407	-935.28442	-411.58859	768.39221	-907.74384	-760.19324	811.79272	-952.38867				-689.70996	892.26508	-716.57513	-754.50146	414.23331	-1009.10956	-565.84631	393.23785	-743.32245				-609.41229	116.49724	-544.89471	
346	3.450	-612.39105	1417.94507	-1069.92566				-757.16425	1512.10938	-949.08081				-863.80402	1288.21460	-857.54010	-505.97940	1293.26636	-796.27557	-667.82202	1179.17053	-961.49011	-688.69751	1344.33716	-777.84698	-933.17969	953.28259	-854.24860	-421.01163	948.14954	-776.41913	-905.84753	768.57489	-945.49286	-412.08508	767.65216	-910.87457	-759.70264	813.64551	-963.09821				-688.66669	893.66211	-729.01544	-754.48895	415.20462	-1017.64178	-564.28943	392.61255	-754.35901				-608.01062	120.35170	-550.73676	
347	3.460	-611.93457	1420.24475	-1077.62451				-757.31763	1514.22070	-957.37622				-864.45752	1288.85913	-867.28149	-506.48038	1294.68738	-802.52155	-667.18805	1181.16748	-970.08673	-691.13928	1346.83752	-787.48169	-932.08392	954.02325	-864.51062	-424.10715	950.09601	-783.90503	-904.69202	769.00677	-955.52411	-412.60358	767.43353	-914.98297	-759.52954	815.75043	-973.71106				-687.01324	894.22418	-739.80005	-754.62213	416.15884	-1025.01709	-563.60193	392.19617	-767.11664				-606.59149	124.43586	-556.01923	
348	3.470	-611.32672	1423.07214	-1085.71851				-757.53217	1516.09497	-965.03241				-864.54773	1289.80273	-876.97388	-507.54904	1297.55676	-811.61694	-666.53040	1183.43286	-979.73535	-691.67529	1346.79480	-795.56256	-932.02740	955.01221	-875.68506	-425.33862	952.15961	-791.39105	-903.50739	769.71222	-965.61639	-413.58517	768.09436	-918.18164	-759.42169	818.49829	-984.10986				-685.35236	896.10657	-750.34375	-754.84717	417.28165	-1031.57593	-560.74298	392.16458	-781.86530				-604.62061	128.88194	-563.94196	
349	3.480							-757.57745	1518.34119	-973.48608				-864.93738	1291.19995	-887.54285	-508.04404	1299.79956	-818.53308	-665.63715	1185.66492	-988.43152	-692.24683	1348.02759	-804.34039	-931.12671	955.28601	-885.97491	-427.85645	954.65405	-797.53979	-902.19232	771.08850	-976.39117	-414.50983	768.72070	-922.93488	-759.26373	821.73297	-994.73920				-683.06134	897.77533	-761.79913	-755.82129	417.34927	-1037.60071	-557.94269	391.10971	-796.52155				-603.20441	133.46834	-572.22382	
350	3.490							-757.61371	1520.34583	-981.30914				-865.36310	1292.17859	-896.65533	-508.40210	1301.32458	-825.80042	-664.60645	1188.42725	-997.82904	-693.02698	1349.36292	-812.93408	-931.27856	957.60480	-896.46222	-428.97089	957.71362	-803.36292	-900.95264	772.12860	-986.49066	-415.59723	770.40027	-927.87836	-759.23376	824.81952	-1005.06366				-681.62469	899.72791	-770.78595	-756.50330	417.97623	-1043.43494	-554.91333	390.45850	-812.19525				-601.55548	138.60463	-581.95966	
351	3.500							-757.69916	1522.23901	-988.87567				-864.72736	1293.84558	-906.97882	-508.94147	1304.02954	-832.78265	-663.67181	1190.44226	-1006.71094	-693.48889	1350.52747	-821.57086	-930.32776	958.55042	-907.21649	-431.36917	959.49298	-811.69940	-899.63037	773.70056	-997.52948	-416.51407	771.36371	-930.90063	-759.23566	827.56152	-1014.91998				-680.46869	900.79645	-780.55347				-551.73529	389.74146	-829.24310				-598.71954	144.00163	-592.90027	
352	3.510							-757.73767	1524.04309	-996.40625				-864.20715	1294.68567	-916.19885	-509.16336	1305.97522	-840.68671	-662.47089	1193.52844	-1016.64557	-694.58179	1352.32849	-830.37634	-929.69562	960.07349	-918.32294	-432.98605	962.74414	-815.73718	-898.37695	775.38739	-1008.45947	-416.85419	772.23291	-935.37329	-759.18396	830.18689	-1025.12366				-679.06219	901.37866	-789.30249	-757.56409	417.59305	-1051.59619	-548.46411	388.75583	-846.20850				-596.10602	149.93181	-604.09491	
353	3.520							-757.62433	1525.79407	-1004.27417				-864.45044	1296.58398	-926.19049	-509.16800	1308.24548	-849.15204	-661.46039	1195.39832	-1025.26575	-695.31671	1353.25977	-839.22235	-928.97278	961.23932	-928.92401	-433.22910	965.76556	-820.97339	-897.13055	776.86157	-1019.18341	-417.11572	774.21295	-941.22632	-758.91534	831.78387	-1034.11206				-679.66479	903.32843	-800.04205				-545.20001	387.71249	-864.62531				-593.48889	155.86522	-615.47595	
